<?xml version="1.0" encoding="utf-8"?>
<svg viewBox="15.34 -302.56 1244.233 1153.183" xmlns="http://www.w3.org/2000/svg">
  <g transform="matrix(-2.04622, 0, 0, 2.200122, 1066.469116, -291.127136)">
    <g>
      <path d="M386.235,248.308L140.902,2.975c-4.267-4.053-10.987-3.947-15.04,0.213c-3.947,4.16-3.947,10.667,0,14.827l237.76,237.76 l-237.76,237.867c-4.267,4.053-4.373,10.88-0.213,15.04c4.053,4.267,10.88,4.373,15.04,0.213c0.107-0.107,0.213-0.213,0.213-0.213 l245.333-245.333C390.395,259.188,390.395,252.468,386.235,248.308z"/>
    </g>
  </g>
  <g transform="matrix(2.04622, 0, 0, 2.200122, 239.103516, -289.14444)"/>
  <g transform="matrix(2.04622, 0, 0, 2.200122, 239.103516, -289.14444)"/>
  <g transform="matrix(2.04622, 0, 0, 2.200122, 239.103516, -289.14444)"/>
  <g transform="matrix(2.04622, 0, 0, 2.200122, 239.103516, -289.14444)"/>
  <g transform="matrix(2.04622, 0, 0, 2.200122, 239.103516, -289.14444)"/>
  <g transform="matrix(2.04622, 0, 0, 2.200122, 239.103516, -289.14444)"/>
  <g transform="matrix(2.04622, 0, 0, 2.200122, 239.103516, -289.14444)"/>
  <g transform="matrix(2.04622, 0, 0, 2.200122, 239.103516, -289.14444)"/>
  <g transform="matrix(2.04622, 0, 0, 2.200122, 239.103516, -289.14444)"/>
  <g transform="matrix(2.04622, 0, 0, 2.200122, 239.103516, -289.14444)"/>
  <g transform="matrix(2.04622, 0, 0, 2.200122, 239.103516, -289.14444)"/>
  <g transform="matrix(2.04622, 0, 0, 2.200122, 239.103516, -289.14444)"/>
  <g transform="matrix(2.04622, 0, 0, 2.200122, 239.103516, -289.14444)"/>
  <g transform="matrix(2.04622, 0, 0, 2.200122, 239.103516, -289.14444)"/>
  <g transform="matrix(2.04622, 0, 0, 2.200122, 239.103516, -289.14444)"/>
  <g transform="matrix(-2.04622, 0, 0, 2.200122, 1277.78479, -288.876587)">
    <g>
      <path d="M386.235,248.308L140.902,2.975c-4.267-4.053-10.987-3.947-15.04,0.213c-3.947,4.16-3.947,10.667,0,14.827l237.76,237.76 l-237.76,237.867c-4.267,4.053-4.373,10.88-0.213,15.04c4.053,4.267,10.88,4.373,15.04,0.213c0.107-0.107,0.213-0.213,0.213-0.213 l245.333-245.333C390.395,259.188,390.395,252.468,386.235,248.308z"/>
    </g>
  </g>
  <rect style="" x="-292.994" y="-290.591" width="45.011" height="1129.78" rx="15" ry="15" transform="matrix(-1, 0, 0, 1, 0, 0)"/>
</svg>